HIERARCHY
ROOT hip
{
  OFFSET 0 0 0
  CHANNELS 6 Xposition Yposition Zposition Zrotation Yrotation Xrotation
  JOINT abdomen
  {
    OFFSET 0 20.6881 -0.73152
    CHANNELS 3 Zrotation Xrotation Yrotation
    JOINT chest
    {
      OFFSET 0 11.7043 -0.48768
      CHANNELS 3 Zrotation Xrotation Yrotation
      JOINT neck
      {
        OFFSET 0 22.1894 -2.19456
        CHANNELS 3 Zrotation Xrotation Yrotation
        JOINT head
        {
          OFFSET -0.24384 7.07133 1.2192
          CHANNELS 3 Zrotation Xrotation Yrotation
          JOINT leftEye
          {
            OFFSET 4.14528 8.04674 8.04672
            CHANNELS 3 Zrotation Xrotation Yrotation
            End Site
            {
              OFFSET 1 0 0
            }
          }
          JOINT rightEye
          {
            OFFSET -3.6576 8.04674 8.04672
            CHANNELS 3 Zrotation Xrotation Yrotation
            End Site
            {
              OFFSET 1 0 0
            }
          }
        }
      }
      JOINT rCollar
      {
        OFFSET -2.68224 19.2634 -4.8768
        CHANNELS 3 Zrotation Xrotation Yrotation
        JOINT rShldr
        {
          OFFSET -8.77824 -1.95073 1.46304
          CHANNELS 3 Zrotation Xrotation Yrotation
          JOINT rForeArm
          {
            OFFSET -28.1742 -1.7115 0.48768
            CHANNELS 3 Zrotation Xrotation Yrotation
            JOINT rHand
            {
              OFFSET -22.5879 0.773209 7.07136
              CHANNELS 3 Zrotation Xrotation Yrotation
              JOINT rThumb1
              {
                OFFSET -1.2192 -0.487915 3.41376
                CHANNELS 3 Zrotation Xrotation Yrotation
                JOINT rThumb2
                {
                  OFFSET -3.37035 -0.52449 3.41376
                  CHANNELS 3 Zrotation Xrotation Yrotation
                  End Site
                  {
                    OFFSET -1.78271 -1.18214 1.43049
                  }
                }
              }
              JOINT rIndex1
              {
                OFFSET -7.75947 0.938293 5.60832
                CHANNELS 3 Zrotation Xrotation Yrotation
                JOINT rIndex2
                {
                  OFFSET -2.54057 -0.884171 1.56538
                  CHANNELS 3 Zrotation Xrotation Yrotation
                  End Site
                  {
                    OFFSET -1.62519 -0.234802 1.16502
                  }
                }
              }
              JOINT rMid1
              {
                OFFSET -8.24714 1.18213 3.41376
                CHANNELS 3 Zrotation Xrotation Yrotation
                JOINT rMid2
                {
                  OFFSET -3.10165 -0.590103 1.0647
                  CHANNELS 3 Zrotation Xrotation Yrotation
                  End Site
                  {
                    OFFSET -2.48547 -0.328903 0.83742
                  }
                }
              }
              JOINT rRing1
              {
                OFFSET -8.82822 0.546677 1.51678
                CHANNELS 3 Zrotation Xrotation Yrotation
                JOINT rRing2
                {
                  OFFSET -2.60934 -0.819778 -0.0198488
                  CHANNELS 3 Zrotation Xrotation Yrotation
                  End Site
                  {
                    OFFSET -2.33842 -0.294052 0.168128
                  }
                }
              }
              JOINT rPinky1
              {
                OFFSET -8.27202 -0.0477905 -0.4584
                CHANNELS 3 Zrotation Xrotation Yrotation
                JOINT rPinky2
                {
                  OFFSET -1.82734 -0.647385 -0.700984
                  CHANNELS 3 Zrotation Xrotation Yrotation
                  End Site
                  {
                    OFFSET -1.69225 -0.51767 -0.607171
                  }
                }
              }
            }
          }
        }
      }
      JOINT lCollar
      {
        OFFSET 2.68224 19.2634 -4.8768
        CHANNELS 3 Zrotation Xrotation Yrotation
        JOINT lShldr
        {
          OFFSET 8.77824 -1.95073 1.46304
          CHANNELS 3 Zrotation Xrotation Yrotation
          JOINT lForeArm
          {
            OFFSET 28.1742 -1.7115 0.48768
            CHANNELS 3 Zrotation Xrotation Yrotation
            JOINT lHand
            {
              OFFSET 22.5879 0.773209 7.07136
              CHANNELS 3 Zrotation Xrotation Yrotation
              JOINT lThumb1
              {
                OFFSET 1.2192 -0.487915 3.41376
                CHANNELS 3 Zrotation Xrotation Yrotation
                JOINT lThumb2
                {
                  OFFSET 3.37035 -0.52449 3.41376
                  CHANNELS 3 Zrotation Xrotation Yrotation
                  End Site
                  {
                    OFFSET 1.78271 -1.18214 1.43049
                  }
                }
              }
              JOINT lIndex1
              {
                OFFSET 7.75947 0.938293 5.60832
                CHANNELS 3 Zrotation Xrotation Yrotation
                JOINT lIndex2
                {
                  OFFSET 2.54057 -0.884171 1.56538
                  CHANNELS 3 Zrotation Xrotation Yrotation
                  End Site
                  {
                    OFFSET 1.62519 -0.234802 1.16502
                  }
                }
              }
              JOINT lMid1
              {
                OFFSET 8.24714 1.18213 3.41376
                CHANNELS 3 Zrotation Xrotation Yrotation
                JOINT lMid2
                {
                  OFFSET 3.10165 -0.590103 1.0647
                  CHANNELS 3 Zrotation Xrotation Yrotation
                  End Site
                  {
                    OFFSET 2.48547 -0.328903 0.83742
                  }
                }
              }
              JOINT lRing1
              {
                OFFSET 8.82822 0.546677 1.51678
                CHANNELS 3 Zrotation Xrotation Yrotation
                JOINT lRing2
                {
                  OFFSET 2.60934 -0.819778 -0.0198488
                  CHANNELS 3 Zrotation Xrotation Yrotation
                  End Site
                  {
                    OFFSET 2.33842 -0.294052 0.168128
                  }
                }
              }
              JOINT lPinky1
              {
                OFFSET 8.27202 -0.0477905 -0.4584
                CHANNELS 3 Zrotation Xrotation Yrotation
                JOINT lPinky2
                {
                  OFFSET 1.82734 -0.647385 -0.700984
                  CHANNELS 3 Zrotation Xrotation Yrotation
                  End Site
                  {
                    OFFSET 1.69225 -0.51767 -0.607171
                  }
                }
              }
            }
          }
        }
      }
    }
  }
  JOINT rButtock
  {
    OFFSET -8.77824 4.35084 1.2192
    CHANNELS 3 Zrotation Xrotation Yrotation
    JOINT rThigh
    {
      OFFSET 0 -1.70687 -2.19456
      CHANNELS 3 Zrotation Xrotation Yrotation
      JOINT rShin
      {
        OFFSET 0 -36.8199 0.73152
        CHANNELS 3 Zrotation Xrotation Yrotation
        JOINT rFoot
        {
          OFFSET 0.73152 -45.1104 -5.12064
          CHANNELS 3 Zrotation Xrotation Yrotation
          End Site
          {
            OFFSET -1.1221 -3.69964 12.103
          }
        }
      }
    }
  }
  JOINT lButtock
  {
    OFFSET 8.77824 4.35084 1.2192
    CHANNELS 3 Zrotation Xrotation Yrotation
    JOINT lThigh
    {
      OFFSET 0 -1.70687 -2.19456
      CHANNELS 3 Zrotation Xrotation Yrotation
      JOINT lShin
      {
        OFFSET 0 -36.8199 0.73152
        CHANNELS 3 Zrotation Xrotation Yrotation
        JOINT lFoot
        {
          OFFSET -0.73152 -45.1104 -5.12064
          CHANNELS 3 Zrotation Xrotation Yrotation
          End Site
          {
            OFFSET 1.1221 -3.69964 12.103
          }
        }
      }
    }
  }
}
MOTION
Frames:	4
Frame Time:	0.00833333
-36.0658 85.1887 4.78944 0.0 0.0 0.0 0.559353 -0.00286671 0.0159889 0.154367 -0.00442833 0.0267462 3.46536e-15 0.0 -1.05604e-16 1.03213e-14 3.18055e-15 -3.32343e-16 -0.0 0.0 0.0 -0.0 0.0 0.0 1.68835e-15 -8.92978e-18 9.93923e-17 3.73622e-14 -4.78326e-16 0.0 6.16729e-13 -1.89839e-13 -3.18055e-15 7.07869e-12 1.54133e-13 -2.41722e-13 1.66917e-11 -7.64392e-14 -5.08889e-13 2.88285e-11 -1.36764e-13 -8.8658e-13 1.66951e-11 -7.51406e-14 -5.21611e-13 7.73091 5.47488 0.417314 1.6693e-11 -7.65321e-14 -5.12069e-13 2.90554 0.965183 0.102902 1.66999e-11 -7.61345e-14 -5.12864e-13 10.2786 0.731801 0.0259123 1.66852e-11 -7.39479e-14 -5.05708e-13 2.22167 -0.733487 -0.20892 1.59171e-15 -9.70628e-18 -1.98785e-16 3.42236e-14 -3.60297e-16 -1.78906e-15 6.19065e-13 1.78906e-13 -4.77083e-14 7.07812e-12 -2.16327e-13 -1.74931e-13 1.66976e-11 -7.86067e-14 -5.12069e-13 2.88345e-11 -1.33583e-13 -8.84194e-13 1.66951e-11 -7.87187e-14 -5.02528e-13 -7.73091 5.47488 -0.417314 1.66979e-11 -7.89175e-14 -5.12069e-13 -2.90554 0.965183 -0.102902 1.66905e-11 -7.87187e-14 -5.12069e-13 -10.2786 0.731801 -0.0259123 1.67045e-11 -7.59357e-14 -5.1843e-13 -2.22167 -0.733487 0.20892 -2.03217e-16 0.0 -3.88251e-19 0.922963 -4.50513 -0.0770305 -0.00206808 2.60854 -0.00962775 -0.502429 1.89676 0.0959378 2.03217e-16 0.0 3.88251e-19 -0.0712768 -2.35215 0.0224563 0.00807218 -1.29119 0.0692005 0.494649 3.64343 -0.130523
-34.1739 83.1429 0.730612 11.3965 81.2623 20.2646 -1.12333 -2.80374 1.05973 -0.368904 0.802643 0.347428 0.4104 1.80804 0.047959 -0.935248 0.341888 0.291949 -0.0 0.0 0.0 -0.0 0.0 0.0 -3.7845e-14 1.11899e-12 2.71865e-14 24.7483 5.05668 -0.752199 -4.08259 -1.82844 6.40522 0.12636 7.90118 1.07272 8.14719e-10 3.13801e-10 -6.88368e-10 1.39177e-09 5.42597e-10 -1.20759e-09 8.14722e-10 3.13802e-10 -6.88381e-10 7.73091 5.47488 0.417314 8.14721e-10 3.13802e-10 -6.8837e-10 2.90554 0.965183 0.102902 8.14725e-10 3.13801e-10 -6.88371e-10 10.2786 0.731801 0.0259123 8.14714e-10 3.13803e-10 -6.88365e-10 2.22167 -0.733487 -0.20892 -3.79414e-14 1.11899e-12 2.69338e-14 -22.5782 5.25023 -1.87712 3.79783 -1.64909 -6.01273 0.000561613 -0.0700329 0.00986245 -2.60386e-10 -1.03398e-10 1.17146e-09 -4.48224e-10 -1.77845e-10 2.02503e-09 -2.60388e-10 -1.03397e-10 1.17147e-09 -7.73091 5.47488 -0.417314 -2.60386e-10 -1.03398e-10 1.17146e-09 -2.90554 0.965183 -0.102902 -2.60392e-10 -1.03398e-10 1.17146e-09 -10.2786 0.731801 -0.0259123 -2.60379e-10 -1.03395e-10 1.17145e-09 -2.22167 -0.733487 0.20892 -2.03217e-16 0.0 -3.88251e-19 -1.78561 -10.0853 -2.69006 -0.0260814 18.5122 0.200486 -0.752732 1.59631 -3.06157 2.03217e-16 0.0 3.88251e-19 -1.37848 -7.54498 2.67464 0.0176957 3.88251 0.0647165 0.527212 -0.182355 0.69512
-33.2259 83.1918 0.638363 9.6915 81.6661 18.4147 -2.80228 -5.77463 2.1985 -0.934335 1.65535 0.694486 0.842004 3.72353 0.0956958 -1.93044 0.702086 0.594777 -0.0 0.0 0.0 -0.0 0.0 0.0 -8.02695e-14 2.29198e-12 5.47807e-14 51.0712 10.3854 -1.5815 -7.94977 -3.68014 13.1862 -0.0741112 16.2656 2.27967 1.70954e-09 6.64063e-10 -1.45006e-09 2.92021e-09 1.14829e-09 -2.54406e-09 1.70954e-09 6.64062e-10 -1.45007e-09 7.73091 5.47488 0.417314 1.70954e-09 6.64063e-10 -1.45006e-09 2.90554 0.965183 0.102902 1.70955e-09 6.64061e-10 -1.45006e-09 10.2786 0.731801 0.0259123 1.70954e-09 6.64063e-10 -1.45006e-09 2.22167 -0.733487 -0.20892 -8.03632e-14 2.29199e-12 5.45788e-14 -46.0738 10.7615 -3.86607 7.42333 -3.32149 -12.3614 0.00156178 -0.0829082 0.0117055 -5.6124e-10 -2.32414e-10 2.46504e-09 -9.66154e-10 -3.99908e-10 4.26119e-09 -5.61242e-10 -2.32411e-10 2.46505e-09 -7.73091 5.47488 -0.417314 -5.6124e-10 -2.32415e-10 2.46504e-09 -2.90554 0.965183 -0.102902 -5.61244e-10 -2.32414e-10 2.46504e-09 -10.2786 0.731801 -0.0259123 -5.61234e-10 -2.32412e-10 2.46504e-09 -2.22167 -0.733487 0.20892 -2.03217e-16 0.0 -3.88251e-19 -5.24524 -15.8685 -5.60817 -0.206425 35.4038 0.492388 -1.04 1.36179 -6.3572 2.03217e-16 0.0 3.88251e-19 -2.22338 -13.0486 5.58562 0.02931 9.36825 0.0629637 0.681321 -4.19755 1.57227
-32.2771 83.2561 0.453102 11.139 82.0666 19.6333 -4.17989 -8.39419 3.1775 -1.44257 2.41647 0.989568 1.22209 5.42412 0.144452 -2.8162 1.02556 0.875971 -0.0 0.0 0.0 -0.0 0.0 0.0 -1.16912e-13 3.35698e-12 8.13608e-14 74.6553 15.1594 -2.3289 -11.0426 -5.21167 19.2887 -0.57725 23.6687 3.4807 2.41077e-09 9.41557e-10 -2.06409e-09 4.11764e-09 1.62806e-09 -3.621e-09 2.41078e-09 9.41555e-10 -2.0641e-09 7.73091 5.47488 0.417314 2.41078e-09 9.41558e-10 -2.06409e-09 2.90554 0.965183 0.102902 2.41078e-09 9.41555e-10 -2.06409e-09 10.2786 0.731801 0.0259123 2.41077e-09 9.41557e-10 -2.06408e-09 2.22167 -0.733487 -0.20892 -1.17008e-13 3.357e-12 8.11989e-14 -66.6705 15.6817 -5.82526 10.3712 -4.72975 -18.0944 0.00175717 -0.210099 0.0295875 -8.14554e-10 -3.10037e-10 3.5154e-09 -1.40234e-09 -5.33268e-10 6.07686e-09 -8.14555e-10 -3.10032e-10 3.51541e-09 -7.73091 5.47488 -0.417314 -8.14553e-10 -3.10038e-10 3.5154e-09 -2.90554 0.965183 -0.102902 -8.14556e-10 -3.10037e-10 3.5154e-09 -10.2786 0.731801 -0.0259123 -8.14547e-10 -3.10035e-10 3.51539e-09 -2.22167 -0.733487 0.20892 -2.03217e-16 0.0 -3.88251e-19 -8.823 -21.0725 -8.35406 -0.592856 50.3161 0.92332 -1.35255 0.988864 -9.37431 2.03217e-16 0.0 3.88251e-19 -2.49209 -17.7785 8.30894 0.0391741 14.2299 0.0570896 0.924959 -7.82737 2.36794
